<svg width="183" height="186" viewBox="0 0 183 186" fill="none" xmlns="http://www.w3.org/2000/svg">
<path d="M182.242 105.009C178.374 130.792 166.369 151.372 146.227 166.748C130.024 179.117 108.873 185.946 87.9183 185.06C54.7997 183.664 25.268 164.409 10.1493 134.926C1.27935 117.63 -1.77669 99.0609 0.981137 79.2199C1.25473 77.2555 1.55842 75.2938 1.8922 73.3349C6.35178 52.996 16.2066 36.0988 31.4567 22.6435C59.7491 -2.3165 101.264 -7.21656 134.481 10.816C168.494 29.2836 187.077 66.1613 182.242 105.009ZM54.6356 42.8675C42.7616 46.5774 34.4198 54.0657 29.61 65.3323C17.4132 93.9037 32.8274 126.07 54.7669 144.472C57.18 146.491 63.4344 151.03 66.2907 147.616C68.7202 144.718 64.0335 141.517 61.957 139.917C59.47 138.004 54.3319 133.26 54.0692 129.731C53.9598 128.264 54.6794 127.558 56.2279 127.613C58.8708 127.701 61.3633 127.662 63.7052 127.498C67.1361 127.268 68.7694 125.695 68.6053 122.779C68.4001 119.143 60.4713 116.886 57.968 115.425C48.5016 109.887 42.2609 102.043 39.2459 91.8928C38.4635 89.2663 38.209 86.3498 38.4826 83.1432C40.2993 72.391 45.5824 64.7933 54.3319 60.3502C60.2169 57.3543 67.3002 56.673 73.4561 58.8399C82.3917 61.9862 88.2493 68.2871 91.029 77.7425C91.0382 77.7725 91.0541 77.8 91.0755 77.8229C91.0969 77.8457 91.1233 77.8634 91.1527 77.8745C91.182 77.8856 91.2135 77.8898 91.2447 77.8869C91.2759 77.8839 91.306 77.8738 91.3327 77.8574C91.6501 77.6604 91.8772 77.3759 92.014 77.0038C95.9127 66.4732 103.357 59.0451 114.626 57.7236C121.061 56.9767 128.022 59.119 133.102 63.0259C139.794 68.1695 143.614 75.2856 144.56 84.3744C144.725 86.5796 144.566 88.6179 144.084 90.4892C141.206 101.663 134.67 110.04 124.476 115.622C122.282 116.825 119.786 118.048 116.99 119.29C115.505 119.955 114.003 121.843 114.282 123.575C114.687 126.092 116.358 127.408 119.297 127.523C121.836 127.621 124.44 127.676 127.111 127.687C127.37 127.689 127.627 127.744 127.865 127.848C128.102 127.953 128.316 128.106 128.492 128.297C128.669 128.488 128.804 128.713 128.889 128.958C128.975 129.203 129.009 129.464 128.99 129.723C128.678 134.138 121.234 139.859 117.844 142.584C115.718 144.291 114.848 147.599 118.246 148.601C125.231 150.669 138.684 134.442 142.755 128.77C153.802 113.381 159.696 96.0705 156.897 77.3075C154.804 63.2639 146.038 50.0247 132.561 44.4927C122.087 40.0933 112.093 40.3614 102.577 45.297C98.0467 47.6527 94.3204 51.1656 91.7513 55.5322C91.7228 55.5776 91.6831 55.6149 91.636 55.6406C91.5888 55.6662 91.5359 55.6792 91.4822 55.6784C91.4286 55.6775 91.3761 55.6629 91.3298 55.6359C91.2834 55.6088 91.2449 55.5703 91.2178 55.524C84.0524 42.8757 67.9076 39.1494 54.6356 42.8675ZM78.4465 116.828H104.482C104.582 116.828 104.681 116.808 104.774 116.77C104.866 116.732 104.951 116.675 105.021 116.605C105.092 116.534 105.148 116.45 105.187 116.357C105.225 116.264 105.245 116.165 105.245 116.065V99.5342C105.245 96.1057 103.883 92.8176 101.459 90.3933C99.0343 87.9689 95.7462 86.6069 92.3176 86.6069H90.6104C87.1819 86.6069 83.8938 87.9689 81.4694 90.3933C79.0451 92.8176 77.6831 96.1057 77.6831 99.5342V116.065C77.6831 116.267 77.7635 116.461 77.9067 116.605C78.0499 116.748 78.244 116.828 78.4465 116.828ZM104.662 121.802H78.2823C78.1212 121.802 77.9667 121.866 77.8528 121.98C77.7389 122.094 77.6749 122.248 77.6749 122.409V139.088C77.6749 140.804 78.0174 142.503 78.6827 144.088C79.348 145.673 80.3232 147.114 81.5526 148.327C82.782 149.541 84.2414 150.503 85.8477 151.16C87.4539 151.817 89.1755 152.155 90.9141 152.155H92.0304C93.769 152.155 95.4905 151.817 97.0968 151.16C98.703 150.503 100.163 149.541 101.392 148.327C102.621 147.114 103.596 145.673 104.262 144.088C104.927 142.503 105.27 140.804 105.27 139.088V122.409C105.27 122.248 105.206 122.094 105.092 121.98C104.978 121.866 104.823 121.802 104.662 121.802Z" fill="white"/>
<path d="M54.6356 42.8675C54.756 43.4585 54.455 43.7704 53.7327 43.8032C53.4646 43.8141 53.2266 43.9044 53.0186 44.0741C52.4113 44.5665 51.8696 45.3463 51.1555 45.6335C49.5249 46.2792 48.2882 47.0207 47.4456 47.8579C42.7562 52.5254 39.67 57.9535 38.1871 64.1422C37.1858 68.361 36.4717 72.6044 36.7672 76.9299C36.9259 79.2172 37.4977 81.2883 38.4826 83.1432C38.209 86.3498 38.4635 89.2663 39.2459 91.8928C42.2609 102.043 48.5016 109.887 57.968 115.425C60.4713 116.886 68.4001 119.143 68.6053 122.779C68.7694 125.695 67.1361 127.268 63.7052 127.498C61.3633 127.662 58.8708 127.701 56.2279 127.613C54.6794 127.558 53.9598 128.264 54.0692 129.731C54.3319 133.26 59.47 138.004 61.957 139.917C64.0335 141.517 68.7202 144.718 66.2907 147.616C63.4344 151.03 57.18 146.491 54.7669 144.472C32.8274 126.07 17.4132 93.9037 29.61 65.3323C34.4198 54.0657 42.7616 46.5774 54.6356 42.8675Z" fill="#F03D1E"/>
<path d="M132.561 44.4927C134.043 46.2984 135.556 48.0658 137.099 49.7949C139.119 52.0657 140.549 53.9453 141.392 55.4337C144.971 61.7783 146.637 70.3883 146.095 77.7507C145.926 80.0215 145.414 82.2294 144.56 84.3744C143.614 75.2856 139.794 68.1695 133.102 63.0259C128.022 59.119 121.061 56.9767 114.626 57.7236C103.357 59.0451 95.9127 66.4732 92.014 77.0038C91.8772 77.3759 91.6501 77.6604 91.3327 77.8574C91.306 77.8738 91.2759 77.8839 91.2447 77.8869C91.2135 77.8898 91.182 77.8856 91.1527 77.8745C91.1233 77.8634 91.0969 77.8457 91.0755 77.8229C91.0541 77.8 91.0382 77.7725 91.029 77.7425C88.2493 68.2871 82.3917 61.9862 73.4561 58.8399C67.3002 56.673 60.2169 57.3543 54.3319 60.3502C45.5824 64.7933 40.2993 72.391 38.4826 83.1432C37.4977 81.2883 36.9259 79.2172 36.7672 76.9299C36.4717 72.6044 37.1858 68.361 38.1871 64.1422C39.67 57.9535 42.7562 52.5254 47.4456 47.8579C48.2882 47.0207 49.5249 46.2792 51.1555 45.6335C51.8696 45.3463 52.4113 44.5665 53.0186 44.0741C53.2266 43.9044 53.4646 43.8141 53.7327 43.8032C54.455 43.7704 54.756 43.4585 54.6356 42.8675C67.9076 39.1494 84.0524 42.8757 91.2178 55.524C91.2449 55.5703 91.2834 55.6088 91.3298 55.6359C91.3761 55.6629 91.4286 55.6775 91.4822 55.6784C91.5359 55.6792 91.5888 55.6662 91.636 55.6406C91.6831 55.6149 91.7228 55.5776 91.7513 55.5322C94.3204 51.1656 98.0467 47.6527 102.577 45.297C112.093 40.3614 122.087 40.0933 132.561 44.4927Z" fill="#94291E"/>
<path d="M132.561 44.4927C146.038 50.0247 154.804 63.2639 156.897 77.3075C159.696 96.0705 153.802 113.381 142.755 128.77C138.684 134.442 125.231 150.669 118.246 148.601C114.848 147.599 115.718 144.291 117.844 142.584C121.234 139.859 128.678 134.138 128.99 129.723C129.009 129.464 128.975 129.203 128.889 128.958C128.804 128.713 128.669 128.488 128.492 128.297C128.316 128.106 128.102 127.953 127.865 127.848C127.627 127.744 127.37 127.689 127.111 127.687C124.44 127.676 121.836 127.621 119.297 127.523C116.358 127.408 114.687 126.092 114.282 123.575C114.003 121.843 115.505 119.955 116.99 119.29C119.786 118.048 122.282 116.825 124.476 115.622C134.67 110.04 141.206 101.663 144.084 90.4892C144.566 88.6179 144.725 86.5796 144.56 84.3744C145.414 82.2294 145.926 80.0215 146.095 77.7507C146.637 70.3883 144.971 61.7783 141.392 55.4337C140.549 53.9453 139.119 52.0657 137.099 49.7949C135.556 48.0658 134.043 46.2984 132.561 44.4927Z" fill="#F03D1E"/>
<path d="M78.4465 116.828C78.244 116.828 78.0499 116.748 77.9067 116.605C77.7635 116.461 77.6831 116.267 77.6831 116.065V99.5342C77.6831 96.1057 79.0451 92.8176 81.4694 90.3933C83.8938 87.9689 87.1819 86.6069 90.6104 86.6069H92.3176C95.7462 86.6069 99.0343 87.9689 101.459 90.3933C103.883 92.8176 105.245 96.1057 105.245 99.5342V116.065C105.245 116.165 105.225 116.264 105.187 116.357C105.148 116.45 105.092 116.534 105.021 116.605C104.951 116.675 104.866 116.732 104.774 116.77C104.681 116.808 104.582 116.828 104.482 116.828H78.4465Z" fill="#F03D1E"/>
<path d="M104.662 121.802C104.823 121.802 104.978 121.866 105.092 121.98C105.206 122.094 105.27 122.248 105.27 122.409V139.088C105.27 140.804 104.927 142.503 104.262 144.088C103.596 145.673 102.621 147.114 101.392 148.327C100.163 149.541 98.703 150.503 97.0968 151.16C95.4905 151.817 93.769 152.155 92.0304 152.155H90.9141C89.1755 152.155 87.4539 151.817 85.8477 151.16C84.2414 150.503 82.782 149.541 81.5526 148.327C80.3232 147.114 79.348 145.673 78.6827 144.088C78.0174 142.503 77.6749 140.804 77.6749 139.088V122.409C77.6749 122.248 77.7389 122.094 77.8528 121.98C77.9667 121.866 78.1212 121.802 78.2823 121.802H104.662Z" fill="#3471C1"/>
</svg>
